<?xml version="1.0" encoding="utf-8"?>
<svg version="1.1" xmlns:xlink="http://www.w3.org/1999/xlink" width="191px" height="226px" xmlns="http://www.w3.org/2000/svg">
  <g transform="matrix(1 0 0 1 -139 -191 )">
    <path d="M 139 191  L 330 191  L 330 417  L 139 417  L 139 191  " fill-rule="nonzero" fill="#cccccc" stroke="none" />
    <path d="M 152 204  L 317 204  L 317 404  L 152 404  L 152 204  " fill-rule="nonzero" fill="#ffffff" stroke="none" />
    <path d="M 252.645 253.55  C 244.623 253.55  238.32 247.247  238.32 239.225  C 238.32 231.203  244.623 224.9  252.645 224.9  C 260.667 224.9  266.97 231.203  266.97 239.225  C 266.97 247.247  260.667 253.55  252.645 253.55  " fill-rule="nonzero" fill="#cccccc" stroke="none" />
    <path d="M 157 399  L 157 294.5  L 195.75 247  L 250 285  L 281 275.5  L 312 285  L 312 399  L 157 399  " fill-rule="nonzero" fill="#169bd5" stroke="none" />
  </g>
</svg>