<?xml version="1.0" encoding="utf-8"?>
<svg version="1.1" xmlns:xlink="http://www.w3.org/1999/xlink" width="70px" height="98px" xmlns="http://www.w3.org/2000/svg">
  <g transform="matrix(1 0 0 1 -48 -743 )">
    <path d="M 48 743  L 118 743  L 118 841  L 48 841  L 48 743  " fill-rule="nonzero" fill="#cccccc" stroke="none" />
    <path d="M 53 748  L 113 748  L 113 836  L 53 836  L 53 748  " fill-rule="nonzero" fill="#ffffff" stroke="none" />
    <path d="M 89.65 768.2  C 86.71 768.2  84.4 765.89  84.4 762.95  C 84.4 760.01  86.71 757.7  89.65 757.7  C 92.59 757.7  94.9 760.01  94.9 762.95  C 94.9 765.89  92.59 768.2  89.65 768.2  " fill-rule="nonzero" fill="#cccccc" stroke="none" />
    <path d="M 55 834  L 55 787.8  L 69 766.8  L 88.6 783.6  L 99.8 779.4  L 111 783.6  L 111 834  L 55 834  " fill-rule="nonzero" fill="#169bd5" stroke="none" />
  </g>
</svg>