<?xml version="1.0" encoding="utf-8"?>
<svg version="1.1" xmlns:xlink="http://www.w3.org/1999/xlink" width="100px" height="100px" xmlns="http://www.w3.org/2000/svg">
  <g transform="matrix(1 0 0 1 -406 -692 )">
    <path d="M 18.1818181818182 72.7272727272727  L 27.2727272727273 72.7272727272727  L 27.2727272727273 81.8181818181818  L 18.1818181818182 81.8181818181818  L 18.1818181818182 72.7272727272727  Z M 18.1818181818182 18.1818181818182  L 27.2727272727273 18.1818181818182  L 27.2727272727273 27.2727272727273  L 18.1818181818182 27.2727272727273  L 18.1818181818182 18.1818181818182  Z M 72.7272727272727 18.1818181818182  L 81.8181818181818 18.1818181818182  L 81.8181818181818 27.2727272727273  L 72.7272727272727 27.2727272727273  L 72.7272727272727 18.1818181818182  Z M 9 63  L 9 90  L 37 90  L 37 63  L 9 63  Z M 9 9  L 9 37  L 37 37  L 37 9  L 9 9  Z M 63 9  L 63 37  L 91 37  L 91 9  L 63 9  Z M 0 54  L 46 54  L 46 100  L 0 100  L 0 54  Z M 72.7272727272727 90.9090909090909  L 81.8181818181818 90.9090909090909  L 81.8181818181818 100  L 72.7272727272727 100  L 72.7272727272727 90.9090909090909  Z M 90.9090909090909 90.9090909090909  L 100 90.9090909090909  L 100 100  L 90.9090909090909 100  L 90.9090909090909 90.9090909090909  Z M 90.9090909090909 54.5454545454545  L 100 54.5454545454545  L 100 81  L 72.7272727272727 81  L 72.7272727272727 72.7272727272727  L 63 72.7272727272727  L 63 100  L 54 100  L 54 54  L 81.8181818181818 54  L 81.8181818181818 63.6363636363636  L 90.9090909090909 63.6363636363636  L 90.9090909090909 54.5454545454545  Z M 0 0  L 46 0  L 46 46  L 0 46  L 0 0  Z M 54 0  L 100 0  L 100 46  L 54 46  L 54 0  Z " fill-rule="nonzero" fill="#000000" stroke="none" transform="matrix(1 0 0 1 406 692 )" />
  </g>
</svg>