<?xml version="1.0" encoding="utf-8"?>
<svg version="1.1" xmlns:xlink="http://www.w3.org/1999/xlink" width="80px" height="80px" xmlns="http://www.w3.org/2000/svg">
  <g transform="matrix(1 0 0 1 -30 -199 )">
    <path d="M 70 199  C 92.4 199  110 216.6  110 239  C 110 261.4  92.4 279  70 279  C 47.6 279  30 261.4  30 239  C 30 216.6  47.6 199  70 199  Z " fill-rule="nonzero" fill="#ffffff" stroke="none" />
    <path d="M 70 199.5  C 92.12 199.5  109.5 216.88  109.5 239  C 109.5 261.12  92.12 278.5  70 278.5  C 47.88 278.5  30.5 261.12  30.5 239  C 30.5 216.88  47.88 199.5  70 199.5  Z " stroke-width="1" stroke="#797979" fill="none" />
  </g>
</svg>