<?xml version="1.0" encoding="utf-8"?>
<svg version="1.1" xmlns:xlink="http://www.w3.org/1999/xlink" width="50px" height="50px" xmlns="http://www.w3.org/2000/svg">
  <g transform="matrix(1 0 0 1 -10 -911 )">
    <path d="M 28.3528645833333 34.1471354166667  C 28.5481770833333 34.3424479166667  28.6458333333333 34.5920138888889  28.6458333333333 34.8958333333333  L 28.6458333333333 40.1041666666667  C 28.6458333333333 40.4079861111111  28.5481770833333 40.6575520833333  28.3528645833333 40.8528645833333  C 28.1575520833333 41.0481770833333  27.9079861111111 41.1458333333333  27.6041666666667 41.1458333333333  L 22.3958333333333 41.1458333333333  C 22.0920138888889 41.1458333333333  21.8424479166667 41.0481770833333  21.6471354166667 40.8528645833333  C 21.4518229166667 40.6575520833333  21.3541666666667 40.4079861111111  21.3541666666667 40.1041666666667  L 21.3541666666667 34.8958333333333  C 21.3541666666667 34.5920138888889  21.4518229166667 34.3424479166667  21.6471354166667 34.1471354166667  C 21.8424479166667 33.9518229166667  22.0920138888889 33.8541666666667  22.3958333333333 33.8541666666667  L 27.6041666666667 33.8541666666667  C 27.9079861111111 33.8541666666667  28.1575520833333 33.9518229166667  28.3528645833333 34.1471354166667  Z M 33.4147135416667 11.767578125  C 35.791015625 13.7098524305556  36.9791666666667 16.0373263888889  36.9791666666667 18.75  C 36.9791666666667 19.8350694444444  36.81640625 20.8116319444444  36.4908854166667 21.6796875  C 36.1653645833333 22.5477430555556  35.6716579861111 23.2964409722222  35.009765625 23.92578125  C 34.3478732638889 24.5551215277778  33.7836371527778 25.0325520833333  33.3170572916667 25.3580729166667  C 32.8504774305556 25.68359375  32.2048611111111 26.07421875  31.3802083333333 26.5299479166667  C 30.6857638888889 26.9205729166667  30.1812065972222 27.2243923611111  29.8665364583333 27.44140625  C 29.5518663194444 27.6584201388889  29.2697482638889 27.9188368055556  29.0201822916667 28.22265625  C 28.7706163194444 28.5264756944444  28.6458333333333 28.8411458333333  28.6458333333333 29.1666666666667  L 28.6458333333333 30.2083333333333  C 28.6458333333333 30.5121527777778  28.5481770833333 30.76171875  28.3528645833333 30.95703125  C 28.1575520833333 31.15234375  27.9079861111111 31.25  27.6041666666667 31.25  L 22.3958333333333 31.25  C 22.0920138888889 31.25  21.8424479166667 31.15234375  21.6471354166667 30.95703125  C 21.4518229166667 30.76171875  21.3541666666667 30.5121527777778  21.3541666666667 30.2083333333333  L 21.3541666666667 27.9947916666667  C 21.3541666666667 27.2352430555556  21.4680989583333 26.5353732638889  21.6959635416667 25.8951822916667  C 21.923828125 25.2549913194444  22.1842447916667 24.7395833333333  22.4772135416667 24.3489583333333  C 22.7701822916667 23.9583333333333  23.193359375 23.5731336805556  23.7467447916667 23.193359375  C 24.3001302083333 22.8135850694444  24.7450086805556 22.5368923611111  25.0813802083333 22.36328125  C 25.4177517361111 22.1896701388889  25.9006076388889 21.9618055555556  26.5299479166667 21.6796875  C 27.6801215277778 21.1371527777778  28.4939236111111 20.6705729166667  28.9713541666667 20.2799479166667  C 29.4487847222222 19.8893229166667  29.6875 19.3576388888889  29.6875 18.6848958333333  C 29.6875 17.7734375  29.2154947916667 16.9976128472222  28.271484375 16.357421875  C 27.3274739583333 15.7172309027778  26.2912326388889 15.3971354166667  25.1627604166667 15.3971354166667  C 23.9474826388889 15.3971354166667  22.9166666666667 15.6901041666667  22.0703125 16.2760416666667  C 21.4409722222222 16.7100694444444  20.5729166666667 17.6106770833333  19.4661458333333 18.9778645833333  C 19.2708333333333 19.23828125  18.9995659722222 19.3684895833333  18.65234375 19.3684895833333  C 18.4136284722222 19.3684895833333  18.2074652777778 19.3033854166667  18.0338541666667 19.1731770833333  L 14.5182291666667 16.50390625  C 14.3012152777778 16.3519965277778  14.1710069444444 16.1349826388889  14.1276041666667 15.8528645833333  C 14.0842013888889 15.5707465277778  14.1384548611111 15.3211805555556  14.2903645833333 15.1041666666667  C 16.9379340277778 10.9375  20.7248263888889 8.85416666666667  25.6510416666667 8.85416666666667  C 28.4505208333333 8.85416666666667  31.0384114583333 9.82530381944444  33.4147135416667 11.767578125  Z M 33.0891927083333 5.82682291666667  C 30.517578125 4.72005208333333  27.8211805555556 4.16666666666667  25 4.16666666666667  C 22.1788194444444 4.16666666666667  19.482421875 4.72005208333333  16.9108072916667 5.82682291666667  C 14.3391927083333 6.93359375  12.1256510416667 8.41471354166667  10.2701822916667 10.2701822916667  C 8.41471354166667 12.1256510416667  6.93359375 14.3391927083333  5.82682291666667 16.9108072916667  C 4.72005208333333 19.482421875  4.16666666666667 22.1788194444444  4.16666666666667 25  C 4.16666666666667 27.8211805555556  4.72005208333333 30.517578125  5.82682291666667 33.0891927083333  C 6.93359375 35.6608072916667  8.41471354166667 37.8743489583333  10.2701822916667 39.7298177083333  C 12.1256510416667 41.5852864583333  14.3391927083333 43.06640625  16.9108072916667 44.1731770833333  C 19.482421875 45.2799479166667  22.1788194444444 45.8333333333333  25 45.8333333333333  C 27.8211805555556 45.8333333333333  30.517578125 45.2799479166667  33.0891927083333 44.1731770833333  C 35.6608072916667 43.06640625  37.8743489583333 41.5852864583333  39.7298177083333 39.7298177083333  C 41.5852864583333 37.8743489583333  43.06640625 35.6608072916667  44.1731770833333 33.0891927083333  C 45.2799479166667 30.517578125  45.8333333333333 27.8211805555556  45.8333333333333 25  C 45.8333333333333 22.1788194444444  45.2799479166667 19.482421875  44.1731770833333 16.9108072916667  C 43.06640625 14.3391927083333  41.5852864583333 12.1256510416667  39.7298177083333 10.2701822916667  C 37.8743489583333 8.41471354166667  35.6608072916667 6.93359375  33.0891927083333 5.82682291666667  Z M 46.6471354166667 12.451171875  C 48.8823784722222 16.2814670138889  50 20.4644097222222  50 25  C 50 29.5355902777778  48.8823784722222 33.7185329861111  46.6471354166667 37.548828125  C 44.4118923611111 41.3791232638889  41.3791232638889 44.4118923611111  37.548828125 46.6471354166667  C 33.7185329861111 48.8823784722222  29.5355902777778 50  25 50  C 20.4644097222222 50  16.2814670138889 48.8823784722222  12.451171875 46.6471354166667  C 8.62087673611111 44.4118923611111  5.58810763888889 41.3791232638889  3.35286458333333 37.548828125  C 1.11762152777778 33.7185329861111  0 29.5355902777778  0 25  C 0 20.4644097222222  1.11762152777778 16.2814670138889  3.35286458333333 12.451171875  C 5.58810763888889 8.62087673611111  8.62087673611111 5.58810763888888  12.451171875 3.35286458333333  C 16.2814670138889 1.11762152777777  20.4644097222222 0  25 0  C 29.5355902777778 0  33.7185329861111 1.11762152777777  37.548828125 3.35286458333333  C 41.3791232638889 5.58810763888888  44.4118923611111 8.62087673611111  46.6471354166667 12.451171875  Z " fill-rule="nonzero" fill="#555555" stroke="none" transform="matrix(1 0 0 1 10 911 )" />
  </g>
</svg>